<svg width="32" height="32" viewBox="0 0 32 32" fill="none" xmlns="http://www.w3.org/2000/svg">
<path d="M17.8045 32H32V17.8045H17.8045V32ZM21.3541 21.3527H28.4518V28.4504H21.3527L21.3541 21.3527Z" fill="#2456E8"/>
<path d="M3.60902 0H0V14.1955H3.60902V0Z" fill="#2456E8"/>
<path d="M14.1955 0H10.5865V14.1955H14.1955V0Z" fill="#2456E8"/>
<path d="M8.90226 0H5.29323V14.1955H8.90226V0Z" fill="#2456E8"/>
<path d="M7.09775 17.8045C5.69395 17.8045 4.32167 18.2208 3.15445 19.0007C1.98723 19.7806 1.0775 20.8891 0.540287 22.1861C0.00307533 23.483 -0.137484 24.9101 0.136384 26.287C0.410252 27.6638 1.08625 28.9285 2.07888 29.9211C3.07152 30.9138 4.33622 31.5897 5.71305 31.8636C7.08987 32.1375 8.51699 31.9969 9.81393 31.4597C11.1109 30.9225 12.2194 30.0128 12.9993 28.8455C13.7792 27.6783 14.1955 26.3061 14.1955 24.9023C14.1955 23.0198 13.4477 21.2145 12.1166 19.8834C10.7855 18.5523 8.98018 17.8045 7.09775 17.8045ZM7.09775 28.4518C6.3957 28.4518 5.70943 28.2437 5.1257 27.8536C4.54197 27.4636 4.08701 26.9092 3.81835 26.2606C3.54969 25.612 3.4794 24.8983 3.61636 24.2098C3.75332 23.5212 4.09139 22.8887 4.58781 22.3923C5.08422 21.8959 5.7167 21.5578 6.40525 21.4209C7.09381 21.2839 7.80751 21.3542 8.45612 21.6229C9.10472 21.8915 9.65909 22.3465 10.0491 22.9302C10.4392 23.5139 10.6473 24.2002 10.6473 24.9023C10.6473 25.8437 10.2734 26.7465 9.60769 27.4122C8.94201 28.0779 8.03916 28.4518 7.09775 28.4518Z" fill="#2456E8"/>
<path d="M17.8045 14.1955L32 0H17.8045L32 14.1955H17.8045Z" fill="#2456E8"/>
</svg>
